<?xml version="1.0" standalone="no"?>
<!DOCTYPE svg PUBLIC "-//W3C//DTD SVG 1.1//EN"
  "http://www.w3.org/Graphics/SVG/1.1/DTD/svg11.dtd">
<svg width="77.59200286865234mm" height="88.26399993896484mm" viewBox="-37.823001861572266 -32.263999938964844 77.59200286865234 88.26399993896484" xmlns="http://www.w3.org/2000/svg" version="1.1">
	<title>svgOutput</title>
	<desc>made with tinkercad</desc>
<path d="M 36.46699905395508 -18.010683059692383 L 36.511146545410156 -18.041135787963867 L 36.528316497802734 -18.052978515625 L 36.529632568359375 -18.05403709411621 L 36.678001403808594 -18.157588958740234 L 36.678001403808594 -18.156227111816406 L 36.678001403808594 -17.408000946044922 L 36.678001403808594 -16.895999908447266 L 36.678001403808594 -16.384000778198242 L 36.678001403808594 -15.359999656677246 L 36.678001403808594 -14.336000442504883 L 36.678001403808594 -13.824000358581543 L 36.678001403808594 -13.312000274658203 L 36.678001403808594 -12.288000106811523 L 36.678001403808594 -12.108200073242188 L 36.678001403808594 -12.106411933898926 L 36.63712692260742 -12.134910583496094 L 36.62454605102539 -12.145216941833496 L 36.46699905395508 -12.254316329956055 L 36.450927734375 -12.288000106811523 L 36.379554748535156 -12.437602043151855 L 36.257999420166016 -12.69253158569336 L 36.0822639465332 -13.312000274658203 L 36.05998611450195 -13.390535354614258 L 36.051998138427734 -13.418643951416016 L 36.05197525024414 -13.418766021728516 L 36.04705047607422 -13.443524360656738 L 36.044227600097656 -13.457761764526367 L 36.0345573425293 -13.601465225219727 L 36.01959991455078 -13.824000358581543 L 35.98518371582031 -14.336000442504883 L 35.950927734375 -14.845626831054688 L 35.931846618652344 -15.131999969482422 L 35.947044372558594 -15.359999656677246 L 35.97401809692383 -15.764678955078125 L 36.015750885009766 -16.384000778198242 L 36.04232406616211 -16.77838706970215 L 36.04422378540039 -16.806201934814453 L 36.044227600097656 -16.806238174438477 L 36.04905319213867 -16.830514907836914 L 36.051998138427734 -16.845355987548828 L 36.06633377075195 -16.895999908447266 L 36.1929817199707 -17.343467712402344 L 36.2113037109375 -17.408000946044922 L 36.257869720458984 -17.572004318237305 L 36.257999420166016 -17.572467803955078 L 36.35122299194336 -17.7678279876709 L 36.46674346923828 -18.010143280029297 L 36.46699905395508 -18.010683059692383 M 35.176998138427734 -31.263999938964844 L 35.176998138427734 -24.576000213623047 L 35.176998138427734 -20.479999542236328 L 35.176998138427734 -19.45599937438965 L 35.176998138427734 -18.43199920654297 L 35.176998138427734 -18.226991653442383 L 35.176998138427734 -17.408000946044922 L 35.176998138427734 -16.384000778198242 L 35.176998138427734 -15.359999656677246 L 35.176998138427734 -14.336000442504883 L 35.176998138427734 -13.312000274658203 L 35.176998138427734 -12.288000106811523 L 35.176998138427734 -11.263999938964844 L 35.176998138427734 -10.239999771118164 L 35.176998138427734 -8.192000389099121 L 35.176998138427734 -4.0960001945495605 L 35.176998138427734 1.1102230246251565e-16 L 35.176998138427734 8.192000389099121 L 35.176998138427734 16.384000778198242 L 35.176998138427734 24.576000213623047 L 35.176998138427734 32.768001556396484 L 35.176998138427734 40.959999084472656 L 35.176998138427734 49.152000427246094 L 35.176998138427734 55 L 32.768001556396484 55 L 0 55 L -36.823001861572266 55 L -36.823001861572266 32.768001556396484 L -36.823001861572266 16.384000778198242 L -36.823001861572266 10.175999641418457 L -36.823001861572266 1.1102230246251565e-16 L -36.823001861572266 -9.656999588012695 L -36.823001861572266 -11.227999687194824 L -36.823001861572266 -16.384000778198242 L -36.823001861572266 -21.656999588012695 L -36.823001861572266 -31.263999938964844 L -32.768001556396484 -31.263999938964844 L -16.384000778198242 -31.263999938964844 L 0 -31.263999938964844 L 16.384000778198242 -31.263999938964844 L 32.768001556396484 -31.263999938964844 L 35.176998138427734 -31.263999938964844 M 36.69900131225586 -12.037799835205078 L 36.69900131225586 -12.288000106811523 L 36.69900131225586 -13.312000274658203 L 36.69900131225586 -13.824000358581543 L 36.69900131225586 -14.336000442504883 L 36.69900131225586 -15.359999656677246 L 36.69900131225586 -16.384000778198242 L 36.69900131225586 -16.895999908447266 L 36.69900131225586 -17.408000946044922 L 36.69900131225586 -18.170711517333984 L 36.69900131225586 -18.172245025634766 L 36.69900131225586 -18.226991653442383 L 36.77743911743164 -18.226991653442383 L 36.78059005737305 -18.226991653442383 L 36.86399841308594 -18.226991653442383 L 38.76900100708008 -18.226991653442383 L 38.76900100708008 -16.384000778198242 L 38.76900100708008 -12.288000106811523 L 38.76900100708008 -12.037799835205078 L 36.86399841308594 -12.037799835205078 L 36.69900131225586 -12.037799835205078 z" fill="none" stroke="rgb(255,0,0)" stroke-width="0.001mm" />
</svg>